<svg width="77" height="67" viewBox="0 0 77 67" fill="none" xmlns="http://www.w3.org/2000/svg">
<path d="M60.7817 11.1295H15.9955C13.4502 11.1295 11.0091 12.0089 9.20935 13.5742C7.40955 15.1396 6.39844 17.2627 6.39844 19.4765V47.3C6.39844 49.5138 7.40955 51.6369 9.20935 53.2023C11.0091 54.7676 13.4502 55.647 15.9955 55.647H60.7817C63.327 55.647 65.7681 54.7676 67.5679 53.2023C69.3676 51.6369 70.3788 49.5138 70.3788 47.3V19.4765C70.3788 17.2627 69.3676 15.1396 67.5679 13.5742C65.7681 12.0089 63.327 11.1295 60.7817 11.1295ZM58.6384 16.6942L38.3886 29.9103L18.1388 16.6942H58.6384ZM60.7817 50.0823H15.9955C15.1471 50.0823 14.3334 49.7892 13.7334 49.2674C13.1335 48.7456 12.7965 48.0379 12.7965 47.3V20.1721L36.4692 35.6141C37.0229 35.9753 37.6964 36.1706 38.3886 36.1706C39.0808 36.1706 39.7543 35.9753 40.308 35.6141L63.9807 20.1721V47.3C63.9807 48.0379 63.6437 48.7456 63.0438 49.2674C62.4438 49.7892 61.6301 50.0823 60.7817 50.0823Z" fill="#D9D9D9"/>
</svg>
