<svg width="71" height="64" viewBox="0 0 71 64" fill="none" xmlns="http://www.w3.org/2000/svg">
<path d="M44.6775 22.3215C42.4173 22.3145 40.1776 22.7092 38.0868 23.483C35.996 24.2567 34.0951 25.3944 32.4927 26.8309C30.8903 28.2674 29.618 29.9745 28.7486 31.8545C27.8792 33.7345 27.4296 35.7506 27.4258 37.7873V53.4125C27.4258 54.0468 27.7054 54.6551 28.2032 55.1036C28.7009 55.5521 29.376 55.8041 30.0799 55.8041H36.2728C36.9767 55.8041 37.6518 55.5521 38.1496 55.1036C38.6473 54.6551 38.9269 54.0468 38.9269 53.4125V37.7873C38.9264 37.0629 39.0952 36.3465 39.4225 35.6849C39.7497 35.0232 40.2281 34.4311 40.8263 33.9473C41.4245 33.4634 42.1292 33.0985 42.8944 32.8765C43.6596 32.6544 44.4682 32.5802 45.2673 32.6586C46.7006 32.8213 48.0177 33.4522 48.969 34.4319C49.9202 35.4115 50.4394 36.6716 50.4281 37.9733V53.4125C50.4281 54.0468 50.7077 54.6551 51.2055 55.1036C51.7032 55.5521 52.3783 55.8041 53.0822 55.8041H59.2752C59.9791 55.8041 60.6542 55.5521 61.1519 55.1036C61.6496 54.6551 61.9293 54.0468 61.9293 53.4125V37.7873C61.9254 35.7506 61.4759 33.7345 60.6065 31.8545C59.737 29.9745 58.4647 28.2674 56.8624 26.8309C55.26 25.3944 53.359 24.2567 51.2682 23.483C49.1774 22.7092 46.9378 22.3145 44.6775 22.3215Z" fill="#D9D9D9"/>
<path d="M19.4631 24.7133H11.5008C10.035 24.7133 8.84668 25.7841 8.84668 27.105V53.4127C8.84668 54.7336 10.035 55.8043 11.5008 55.8043H19.4631C20.929 55.8043 22.1173 54.7336 22.1173 53.4127V27.105C22.1173 25.7841 20.929 24.7133 19.4631 24.7133Z" fill="#D9D9D9"/>
<path d="M15.482 19.9301C19.1465 19.9301 22.1173 17.2532 22.1173 13.9511C22.1173 10.649 19.1465 7.97208 15.482 7.97208C11.8174 7.97208 8.84668 10.649 8.84668 13.9511C8.84668 17.2532 11.8174 19.9301 15.482 19.9301Z" fill="#D9D9D9"/>
</svg>
