<svg width="70" height="72" viewBox="0 0 70 72" fill="none" xmlns="http://www.w3.org/2000/svg">
<path d="M49.4252 10.4675C49.4252 10.0709 49.272 9.69056 48.9994 9.41013C48.7268 9.1297 48.357 8.97215 47.9715 8.97215H40.7031C37.0431 8.78461 33.4598 10.0948 30.7359 12.6165C28.0121 15.1382 26.3693 18.6664 26.1664 22.4302V30.5051H18.898C18.5125 30.5051 18.1427 30.6626 17.8701 30.943C17.5975 31.2235 17.4443 31.6038 17.4443 32.0004V39.7762C17.4443 40.1728 17.5975 40.5531 17.8701 40.8335C18.1427 41.114 18.5125 41.2715 18.898 41.2715H26.1664V61.3091C26.1664 61.7057 26.3195 62.086 26.5922 62.3665C26.8648 62.6469 27.2345 62.8044 27.6201 62.8044H36.3421C36.7276 62.8044 37.0974 62.6469 37.37 62.3665C37.6426 62.086 37.7958 61.7057 37.7958 61.3091V41.2715H45.413C45.7363 41.2763 46.0519 41.1701 46.3099 40.9697C46.5679 40.7693 46.7536 40.4861 46.8376 40.165L48.9309 32.3892C48.9888 32.1682 48.9965 31.9366 48.9537 31.7121C48.9108 31.4876 48.8184 31.2761 48.6836 31.0941C48.5487 30.9121 48.3751 30.7644 48.1761 30.6623C47.977 30.5601 47.7578 30.5063 47.5354 30.5051H37.7958V22.4302C37.8681 21.69 38.2061 21.004 38.7436 20.5063C39.2812 20.0086 39.9799 19.7349 40.7031 19.7386H47.9715C48.357 19.7386 48.7268 19.5811 48.9994 19.3006C49.272 19.0202 49.4252 18.6399 49.4252 18.2433V10.4675Z" fill="#D9D9D9"/>
</svg>
